<?xml version="1.0" encoding="UTF-8" standalone="no"?>
<svg width="34px" height="34px" viewBox="30 25 35 35" version="1.1" xmlns="http://www.w3.org/2000/svg" xmlns:xlink="http://www.w3.org/1999/xlink">
  <defs>
      <path
        d="M47.5001507,60 C47.1955476,60 46.8899542,59.8883359 46.653256,59.6648372 C46.1636262,59.200841 46.1451537,58.4323141 46.612737,57.9476978 C49.9311622,54.5053242 58.5456072,44.4546585 58.5456072,39.3573893 C58.5456072,33.3319575 53.5910924,28.4285775 47.5001507,28.4285775 C41.4104577,28.4285775 36.4543928,33.3319575 36.4543928,39.3573893 C36.4543928,42.2266588 39.23677,47.1771584 44.2882117,53.2994284 C44.7179458,53.8204708 44.639233,54.5853764 44.1137776,55.0080471 C43.5886667,55.4317828 42.814069,55.3552241 42.3871769,54.8355024 C36.8215613,48.091475 34,42.8833513 34,39.3573893 C34,31.9924567 40.0565802,26 47.5001507,26 C54.9434198,26 61,31.9924567 61,39.3573893 C61,46.4667002 48.9028147,59.0903698 48.3885978,59.6233839 C48.1467325,59.8735524 47.8241306,60 47.5001507,60 M47.5001507,34.4998935 C44.7924818,34.4998935 42.5908915,36.6783451 42.5908915,39.3573893 C42.5908915,42.0359224 44.7924818,44.2142036 47.5001507,44.2142036 C50.2075182,44.2142036 52.4091085,42.0359224 52.4091085,39.3573893 C52.4091085,36.6783451 50.2075182,34.4998935 47.5001507,34.4998935 M47.5001507,46.6426107 C43.439121,46.6426107 40.1364987,43.375125 40.1364987,39.3573893 C40.1364987,35.3390147 43.439121,32.0714864 47.5001507,32.0714864 C51.560879,32.0714864 54.8635013,35.3390147 54.8635013,39.3573893 C54.8635013,43.375125 51.5610512,46.6426107 47.5001507,46.6426107"
        id="path-1" />
  </defs>
  <mask id="mask-2" fill="white">
      <use xlink:href="#path-1"></use>
  </mask>
  <use id="evaluate-address" fill="#1C3258" xlink:href="#path-1"></use>
</svg>
