<?xml version="1.0" encoding="UTF-8" standalone="no"?>
<svg width="34px" height="34px" viewBox="30 25 35 35" version="1.1" xmlns="http://www.w3.org/2000/svg" xmlns:xlink="http://www.w3.org/1999/xlink">
  <g id="Page-1" stroke="none" stroke-width="1" fill="none" fill-rule="evenodd">
    <g id="首次评估" fill="#1C3258">
      <path d="M34.2325919,50.8045468 C34.707846,50.3289684 34.707846,49.5592036 34.2325919,49.084998 L34.2348522,49.0827837 C31.1529909,43.5350036 31.9441652,36.3999101 36.6513666,31.6953196 C42.3448878,26.0075983 51.6073139,26.0079526 57.2985747,31.6956739 C62.9920959,37.3833509 62.9920959,46.6375782 57.2985747,52.3249452 C52.6043594,57.0165602 45.4913249,57.8148889 39.9473871,54.7658108 L39.9249164,54.7889719 C39.4602106,54.5230838 38.8662204,54.5687861 38.4707884,54.9652712 C38.0739824,55.3610477 38.0275783,55.9549118 38.2936816,56.4187104 C38.3459804,56.5110893 38.3920299,56.6055495 38.4707884,56.6845985 C38.5528709,56.7666147 38.6527261,56.8151955 38.7500551,56.8691791 C38.8045699,56.899293 38.8582426,56.9290084 38.9128018,56.9594766 C45.3616859,60.4316995 53.5799091,59.4806312 59.018939,54.0446268 C65.6603537,47.4089372 65.6603537,36.6131875 59.018939,29.9771879 C52.3785881,23.341144 41.5729045,23.341144 34.9311796,29.9759479 C29.2676194,35.6365224 28.5120792,44.2548147 32.5124048,50.8038382 C32.9876147,51.2779995 33.7573377,51.2787081 34.2325919,50.8045468 Z M44.9082019,36.2001061 C43.9317726,38.326763 41.6345325,41.4203782 39.5859134,43.3730633 C39.2222259,42.8897056 38.6478557,42.406348 38.0926954,42.039004 C40.083733,40.6663384 41.5577894,38.7716115 42.515057,37.0893655 C43.1851395,35.9100721 43.6064085,34.9433082 43.9509824,33.9378407 C44.5445143,34.2472266 45.5017338,34.6145706 45.9036485,34.6532742 C46.2099953,34.7112324 46.2483669,34.9239564 45.9228584,35.0593705 C45.4250388,35.2527427 45.2145969,35.5040245 44.9082019,36.2001061 Z M41.8449745,43.0057679 L41.8449745,41.2076542 C42.4577162,41.3043646 43.8168504,41.3622741 45.8270979,41.3622741 C48.2392601,41.3622741 51.225937,41.3237164 52.1064614,41.2849642 L51.4555888,48.806108 C51.3216493,50.391449 50.6515668,50.7975453 47.952075,51.1842411 C47.8371528,50.4881108 47.5501603,49.7534714 47.071358,49.1154938 C49.1965277,49.3280234 49.7516881,49.0767416 49.9047892,47.3559379 L50.2876867,42.8704997 L45.9993608,42.8704997 C45.8844868,44.6492616 45.4060215,46.3312644 44.6784057,47.4334424 C43.4723246,49.2507134 42.4577162,50.1595677 40.7730254,51.1456834 C40.3517564,50.6429253 39.7008356,50.1401673 39.0115914,49.8695337 C41.1175512,48.9994316 42.5342668,47.7813859 43.1467679,46.8146707 C43.8935936,45.6351828 44.2955083,44.5137989 44.4103823,42.8704997 C43.1659777,42.8704997 42.6491409,42.8897056 41.8449745,43.0057679 Z M54.2124212,42.8317961 C52.5085687,41.6329077 51.1491938,40.376353 50.1345855,39.0228933 C49.2730302,37.8821576 48.4690563,35.9486299 47.9712368,33.9959448 L49.5794251,33.6671585 C50.0772447,35.5812858 50.766489,37.1281178 51.5513011,38.036729 C52.9104352,39.5254568 54.1167089,40.2988485 55.6291368,40.9176201 C55.0931382,41.4010264 54.6336902,42.039004 54.2124212,42.8317961 Z" id="evaluate-score"></path>
    </g>
  </g>
</svg>
