<?xml version="1.0" encoding="UTF-8" standalone="no"?>
<svg width="34px" height="34px" viewBox="30 25 35 35" version="1.1" xmlns="http://www.w3.org/2000/svg" xmlns:xlink="http://www.w3.org/1999/xlink">
  <g id="Page-1" stroke="none" stroke-width="1" fill="none" fill-rule="evenodd">
    <g id="首次评估" fill="#1C3258">
      <path d="M38.7203902,27.247761 L53.1062976,27.247761 C53.5559463,27.247761 54.2302878,27.9221024 54.2302878,29.495522 L54.2302878,49.7258098 L38.495522,49.7258098 C37.5965756,49.7258098 36.247761,50.4001512 36.247761,50.8498 L36.247761,29.495522 C36.247761,28.3717512 37.5965756,27.247761 38.7203902,27.247761 M59.8498,29.9452146 C59.4001512,29.9452146 58.7258098,30.3946878 58.7258098,31.0689854 L58.7258098,56.4693122 C58.7258098,57.5930829 58.0515122,58.7170732 56.927522,58.7170732 L53.1062976,58.7170732 L38.7203902,58.7170732 C37.3717512,58.7170732 36.247761,57.5930829 36.247761,56.4693122 L36.247761,54.2215512 C36.247761,53.097561 37.3717512,51.9735707 38.495522,51.9735707 L56.0285756,51.9735707 C56.4780488,51.9735707 56.4780488,51.748922 56.4780488,51.2992732 L56.4780488,29.495522 C56.4780488,27.247761 55.3540585,25 52.8814732,25 L38.7203902,25 C36.4725854,25 34,27.0229366 34,29.495522 L34,53.9966829 L34,56.2444878 L34,56.4693122 L34,56.6941366 L34,57.1436098 C34.2248244,59.1665463 36.247761,60.7400098 38.0460488,60.9648341 L38.2708732,60.9648341 L38.495522,60.9648341 L38.7203902,60.9648341 L53.1062976,60.9648341 L56.927522,60.9648341 C59.1754585,60.9648341 60.9735707,58.9418976 60.9735707,56.4693122 L60.9735707,31.0689854 C60.9735707,30.3946878 60.2992732,29.9452146 59.8498,29.9452146 Z M56.0285756,54.2215512 L38.9452146,54.2215512 C38.495522,54.2215512 38.0460488,54.6710244 38.0460488,55.345322 C38.0460488,56.0196634 38.495522,56.4693122 38.9452146,56.4693122 L55.8037512,56.4693122 C56.2532244,56.4693122 56.7028732,56.0196634 56.7028732,55.345322 C56.7028732,54.6710244 56.4780488,54.2215512 56.0285756,54.2215512 Z" id="Combined-Shape"></path>
    </g>
  </g>
</svg>
