<?xml version="1.0" encoding="UTF-8" standalone="no"?>
<svg width="34px" height="34px" viewBox="30 25 35 35" version="1.1" xmlns="http://www.w3.org/2000/svg" xmlns:xlink="http://www.w3.org/1999/xlink">
  <g id="Page-1" stroke="none" stroke-width="1" fill="none" fill-rule="evenodd">
    <g id="首次评估" fill="#1C3258">
      <path d="M46.0714555,44.7152536 C45.8516121,44.4956353 45.7157228,44.1922328 45.7157228,43.8570962 L45.7157228,34.7546905 C45.7157228,34.0845943 46.2592801,33.5409038 46.9309129,33.5409038 C47.60259,33.5409038 48.1463243,34.0845943 48.1463243,34.7546905 L48.1463243,42.6433095 L56.6530535,42.6433095 C57.3245535,42.6433095 57.8682436,43.187 57.8682436,43.8570962 C57.8682436,44.5273693 57.3245535,45.0707061 56.6530535,45.0707061 L46.9309129,45.0707061 C46.5950965,45.0707061 46.291299,44.9348719 46.0714555,44.7152536 Z M34.2278001,51.7626489 C34.7025163,51.2878427 34.7025163,50.5193277 34.2278001,50.0458921 L34.2300579,50.0436814 C31.1516855,44.504909 31.9419642,37.3814005 36.6438366,32.6844486 C42.3309121,27.0059623 51.5828522,27.006316 57.2676699,32.6848024 C62.9547454,38.3632445 62.9547454,47.602446 57.2676699,53.2805787 C52.5787689,57.9645761 45.4737871,58.7616086 39.9361256,55.7174812 L39.9136803,55.7406047 C39.4495006,55.4751483 38.8561829,55.5207763 38.4611986,55.9166177 C38.0648418,56.3117516 38.0184902,56.9046515 38.2842923,57.367697 C38.3365319,57.4599259 38.3825293,57.5542328 38.4611986,57.6331535 C38.5431881,57.7150364 38.6429303,57.7635384 38.7401491,57.8174343 C38.7946022,57.8474994 38.8482142,57.8771665 38.9027116,57.9075852 C45.3442949,61.3741704 53.5532142,60.4246463 58.9860866,54.9974682 C65.6199824,48.3725527 65.6199824,37.5943316 58.9860866,30.9691066 C52.3532533,24.3438375 41.5598027,24.3438375 34.925597,30.9678687 C29.2684486,36.6192523 28.5137637,45.2235514 32.5095605,51.7619415 C32.9842324,52.2353329 33.753084,52.2360403 34.2278001,51.7626489 Z" id="evaluate-grade"></path>
    </g>
  </g>
</svg>
